<?xml version="1.0" encoding="UTF-8" standalone="no"?>
<!-- Created with Inkscape (http://www.inkscape.org/) -->

<svg
   xmlns:dc="http://purl.org/dc/elements/1.1/"
   xmlns:cc="http://creativecommons.org/ns#"
   xmlns:rdf="http://www.w3.org/1999/02/22-rdf-syntax-ns#"
   xmlns:svg="http://www.w3.org/2000/svg"
   xmlns="http://www.w3.org/2000/svg"
   xmlns:sodipodi="http://sodipodi.sourceforge.net/DTD/sodipodi-0.dtd"
   xmlns:inkscape="http://www.inkscape.org/namespaces/inkscape"
   width="210mm"
   height="297mm"
   viewBox="0 0 210 297"
   version="1.1"
   id="svg8"
   inkscape:version="0.92.2 5c3e80d, 2017-08-06"
   sodipodi:docname="pinky3.svg">
  <defs
     id="defs2" />
  <sodipodi:namedview
     id="base"
     pagecolor="#ffffff"
     bordercolor="#666666"
     borderopacity="1.0"
     inkscape:pageopacity="0.0"
     inkscape:pageshadow="2"
     inkscape:zoom="2.5549663"
     inkscape:cx="315.89573"
     inkscape:cy="681.67023"
     inkscape:document-units="mm"
     inkscape:current-layer="layer1"
     showgrid="false"
     inkscape:snap-text-baseline="false"
     inkscape:snap-global="false"
     inkscape:window-width="3008"
     inkscape:window-height="1647"
     inkscape:window-x="0"
     inkscape:window-y="1"
     inkscape:window-maximized="1" />
  <metadata
     id="metadata5">
    <rdf:RDF>
      <cc:Work
         rdf:about="">
        <dc:format>image/svg+xml</dc:format>
        <dc:type
           rdf:resource="http://purl.org/dc/dcmitype/StillImage" />
        <dc:title></dc:title>
      </cc:Work>
    </rdf:RDF>
  </metadata>
  <g
     inkscape:label="Layer 1"
     inkscape:groupmode="layer"
     id="layer1">
    <text
       xml:space="preserve"
       style="font-style:normal;font-variant:normal;font-weight:normal;font-stretch:normal;font-size:10.61427975px;line-height:1.25;font-family:Monaco;-inkscape-font-specification:'Monaco, Normal';font-variant-ligatures:normal;font-variant-caps:normal;font-variant-numeric:normal;font-feature-settings:normal;text-align:start;letter-spacing:0px;word-spacing:0px;writing-mode:lr-tb;text-anchor:start;fill:#000000;fill-opacity:1;stroke:none;stroke-width:0.02645833;stroke-miterlimit:4;stroke-dasharray:none"
       x="46.358624"
       y="50.06377"
       id="text12"
       transform="matrix(1.0042692,0,-0.1264406,0.99574895,0,0)"><tspan
         sodipodi:role="line"
         id="tspan10"
         x="46.358624"
         y="59.881981"
         style="font-style:normal;font-variant:normal;font-weight:normal;font-stretch:normal;line-height:1.25;font-family:Monaco;-inkscape-font-specification:'Monaco, Normal';font-variant-ligatures:normal;font-variant-caps:normal;font-variant-numeric:normal;font-feature-settings:normal;text-align:start;writing-mode:lr-tb;baseline-shift:baseline;text-anchor:start;stroke-width:0.02645833;stroke-miterlimit:4;stroke-dasharray:none" /></text>
    <text
       xml:space="preserve"
       style="font-style:normal;font-weight:normal;font-size:10.58333302px;line-height:1.25;font-family:sans-serif;letter-spacing:0px;word-spacing:0px;fill:#000000;fill-opacity:1;stroke:none;stroke-width:0.26458332"
       x="41.592079"
       y="88.014442"
       id="text828"><tspan
         sodipodi:role="line"
         id="tspan826"
         x="41.592079"
         y="97.378212"
         style="stroke-width:0.26458332" /></text>
    <path
       sodipodi:type="inkscape:offset"
       inkscape:radius="1.0665208"
       inkscape:original="M 75.451172 77.654297 C 75.171889 77.654297 74.874624 77.768258 74.558594 77.996094 C 74.242564 78.223929 74.083984 78.570182 74.083984 79.033203 C 74.083984 79.488874 74.242564 79.830758 74.558594 80.058594 C 74.874624 80.286429 75.171889 80.400391 75.451172 80.400391 C 75.737804 80.400391 76.039439 80.286429 76.355469 80.058594 C 76.671499 79.830758 76.828125 79.488874 76.828125 79.033203 C 76.828125 78.570182 76.671499 78.223929 76.355469 77.996094 C 76.039439 77.768258 75.737804 77.654297 75.451172 77.654297 z M 98.601562 77.996094 L 98.601562 95.789062 L 100.65234 95.789062 L 100.65234 89.175781 L 100.65234 77.996094 L 98.601562 77.996094 z M 100.65234 89.175781 L 106.63867 95.789062 L 109.46094 95.789062 L 103.39844 89.175781 L 109.30664 83.476562 L 106.57227 83.476562 L 100.65234 89.175781 z M 129.19531 78.173828 C 128.03409 78.173828 126.75383 78.433261 125.35742 78.955078 L 125.35742 80.90625 C 126.75383 80.222743 128.05881 79.880859 129.27148 79.880859 C 130.35187 79.880859 131.15396 80.128675 131.67578 80.621094 C 132.1976 81.106163 132.45703 81.705064 132.45703 82.417969 C 132.45703 83.204369 132.13746 83.919647 131.49805 84.566406 C 130.85864 85.205816 129.82183 85.525391 128.38867 85.525391 L 126.8125 85.525391 L 126.8125 87.234375 L 127.94922 87.234375 C 129.89685 87.234375 131.27358 87.576259 132.08203 88.259766 C 132.89783 88.943273 133.30664 89.830237 133.30664 90.917969 C 133.30664 91.998351 132.93566 92.883362 132.19336 93.574219 C 131.45841 94.257726 130.52441 94.599609 129.39258 94.599609 C 128.15786 94.599609 126.69867 94.172859 125.01562 93.320312 L 125.01562 95.480469 C 125.94167 95.869994 126.72582 96.106655 127.36523 96.1875 C 128.01199 96.268345 128.60652 96.308594 129.15039 96.308594 C 131.03187 96.308594 132.56477 95.785822 133.74805 94.742188 C 134.93867 93.698553 135.5332 92.375637 135.5332 90.773438 C 135.5332 90.053183 135.4013 89.402879 135.13672 88.822266 C 134.87948 88.241652 134.49735 87.738773 133.99023 87.3125 C 133.48312 86.886227 132.73242 86.526403 131.74023 86.232422 C 132.86471 85.695906 133.63772 85.085851 134.05664 84.402344 C 134.47556 83.718837 134.68359 82.986082 134.68359 82.207031 C 134.68359 81.156047 134.28789 80.224002 133.49414 79.408203 C 132.70774 78.585055 131.27523 78.173828 129.19531 78.173828 z M 57.667969 78.679688 L 57.667969 95.789062 L 59.896484 95.789062 L 59.896484 89.550781 L 60.798828 89.550781 C 62.555367 89.550781 63.945211 89.296181 64.966797 88.789062 C 65.995732 88.274595 66.795877 87.543793 67.369141 86.595703 C 67.942405 85.647613 68.230469 84.626331 68.230469 83.53125 C 68.230469 82.597859 68.016117 81.753096 67.589844 80.996094 C 67.163571 80.239091 66.5511 79.664916 65.75 79.275391 C 64.9489 78.878516 63.673018 78.679688 61.923828 78.679688 L 57.667969 78.679688 z M 59.896484 80.400391 L 61.230469 80.400391 C 63.126649 80.400391 64.393793 80.686502 65.033203 81.259766 C 65.679962 81.83303 66.003906 82.612818 66.003906 83.597656 C 66.003906 84.376707 65.823018 85.100723 65.462891 85.769531 C 65.102763 86.438339 64.58873 86.952373 63.919922 87.3125 C 63.251114 87.665278 62.229832 87.841797 60.855469 87.841797 L 59.896484 87.841797 L 59.896484 80.400391 z M 91.181641 83.134766 C 90.351143 83.134766 89.521904 83.402937 88.691406 83.939453 C 87.860909 84.475969 87.150463 85.217925 86.5625 86.166016 L 86.5625 83.476562 L 84.513672 83.476562 L 84.513672 95.789062 L 86.5625 95.789062 L 86.5625 88.613281 C 87.099016 87.584346 87.780367 86.728429 88.603516 86.044922 C 89.434013 85.361415 90.209433 85.019531 90.929688 85.019531 C 91.289815 85.019531 91.620544 85.140278 91.921875 85.382812 C 92.230556 85.625347 92.438585 85.938137 92.548828 86.320312 C 92.666421 86.695139 92.726562 87.472975 92.726562 88.65625 L 92.726562 95.789062 L 94.777344 95.789062 L 94.777344 88.910156 C 94.777344 87.080122 94.654644 85.853226 94.412109 85.228516 C 94.176924 84.603805 93.761328 84.100926 93.166016 83.71875 C 92.570703 83.329225 91.909245 83.134766 91.181641 83.134766 z M 71.007812 83.476562 L 71.007812 85.183594 L 74.425781 85.183594 L 74.425781 95.789062 L 79.904297 95.789062 L 79.904297 94.080078 L 76.476562 94.080078 L 76.476562 83.476562 L 71.007812 83.476562 z M 110.43164 83.476562 L 116.11914 95.292969 L 115.93164 95.767578 C 115.75525 96.245298 115.45362 96.810735 115.02734 97.464844 C 114.60107 98.118953 114.13166 98.574797 113.61719 98.832031 C 113.10272 99.089265 112.51497 99.21875 111.85352 99.21875 C 111.33905 99.21875 110.79834 99.129514 110.23242 98.953125 L 110.23242 100.76172 C 110.72484 100.87196 111.28349 100.92773 111.9082 100.92773 C 113.34871 100.92773 114.52179 100.53008 115.42578 99.736328 C 116.33712 98.942578 117.29585 97.335966 118.30273 94.917969 L 123.07617 83.476562 L 121.01367 83.476562 L 117.22266 92.714844 L 112.69141 83.476562 L 110.43164 83.476562 z "
       style="font-style:normal;font-weight:normal;font-size:10.58333302px;line-height:1.25;font-family:sans-serif;letter-spacing:0px;word-spacing:0px;fill:#000000;fill-opacity:1;stroke:none;stroke-width:0.1;stroke-miterlimit:4;stroke-dasharray:none"
       id="text840"
       d="m 75.451172,76.587891 c -0.569411,0 -1.079092,0.228258 -1.515625,0.542968 -0.594546,0.428626 -0.917969,1.195808 -0.917969,1.902344 0,0.703114 0.328671,1.465782 0.917969,1.890625 0.436531,0.314708 0.946211,0.542969 1.515625,0.542969 0.569324,0 1.087029,-0.225534 1.527344,-0.542969 0.590989,-0.426063 0.916015,-1.19056 0.916015,-1.890625 0,-0.703535 -0.319778,-1.472499 -0.916015,-1.902344 -0.440317,-0.317438 -0.958023,-0.542968 -1.527344,-0.542968 z m 23.15039,0.341797 a 1.0666275,1.0666275 0 0 0 -1.066406,1.066406 v 17.792968 a 1.0666275,1.0666275 0 0 0 1.066406,1.066407 h 2.050778 a 1.0666275,1.0666275 0 0 0 1.06641,-1.066407 v -3.845703 l 4.12891,4.560547 a 1.0666275,1.0666275 0 0 0 0.79101,0.351563 h 2.82227 a 1.0666275,1.0666275 0 0 0 0.78711,-1.78711 l -5.36133,-5.847656 4.86719,-4.693359 5.20117,10.808594 -0.0156,0.03906 a 1.0666275,1.0666275 0 0 0 -0.008,0.02344 c -0.13426,0.363632 -0.39845,0.873004 -0.79687,1.484374 -0.35448,0.543943 -0.69836,0.848203 -0.99415,0.996094 -0.3519,0.175952 -0.76484,0.273438 -1.2871,0.273438 -0.39115,0 -0.82546,-0.06743 -1.30469,-0.216797 a 1.0666275,1.0666275 0 0 0 -1.38281,1.017578 v 1.808595 A 1.0666275,1.0666275 0 0 0 110,101.80273 c 0.5854,0.13106 1.22002,0.19141 1.9082,0.19141 1.63679,0 3.10567,-0.47797 4.22071,-1.45703 1.16817,-1.018867 2.12425,-2.725987 3.1582,-5.208985 l 4.77344,-11.441406 a 1.0666275,1.0666275 0 0 0 -0.98438,-1.476563 h -2.0625 a 1.0666275,1.0666275 0 0 0 -0.98633,0.66211 l -2.89062,7.046875 -3.48828,-7.111329 a 1.0666275,1.0666275 0 0 0 -0.95703,-0.597656 h -2.25977 a 1.0666275,1.0666275 0 0 0 -0.5625,0.16211 1.0666275,1.0666275 0 0 0 -0.5625,-0.16211 h -2.73437 a 1.0666275,1.0666275 0 0 0 -0.74024,0.298828 l -4.11328,3.958985 v -8.671875 a 1.0666275,1.0666275 0 0 0 -1.06641,-1.066406 z m 30.593748,0.177734 c -1.32007,0 -2.72288,0.291592 -4.21093,0.847656 a 1.0666275,1.0666275 0 0 0 -0.69336,1 v 1.951172 a 1.0666275,1.0666275 0 0 0 1.53515,0.957031 c 1.28689,-0.629897 2.4331,-0.916015 3.44531,-0.916015 0.9173,0 1.41692,0.208624 1.67188,0.449218 a 1.0666275,1.0666275 0 0 0 0.006,0.0059 c 0.33029,0.307034 0.4414,0.561462 0.4414,1.015625 0,0.496628 -0.16243,0.904077 -0.64843,1.396484 -0.35795,0.356743 -1.08068,0.644531 -2.35352,0.644531 h -1.57617 a 1.0666275,1.0666275 0 0 0 -1.06641,1.066407 v 1.708984 a 1.0666275,1.0666275 0 0 0 1.06641,1.066406 h 1.13672 c 1.82282,0 2.95688,0.362145 3.44336,0.773438 a 1.0666275,1.0666275 0 0 0 0.004,0.0039 c 0.6021,0.504454 0.84375,1.019337 0.84375,1.839844 0,0.836235 -0.23392,1.372879 -0.77343,1.875 -0.53486,0.49742 -1.15716,0.740234 -2.07422,0.740234 -0.98898,0 -2.30518,-0.358975 -3.89453,-1.164062 a 1.0666275,1.0666275 0 0 0 -1.54883,0.951171 v 2.160157 a 1.0666275,1.0666275 0 0 0 0.65234,0.982422 c 0.98208,0.413093 1.84213,0.683478 2.63086,0.783203 0.68335,0.08542 1.32148,0.128906 1.91797,0.128906 2.07803,0 3.90757,-0.602261 5.30078,-1.830078 l 0.002,-0.002 c 1.39288,-1.221961 2.14649,-2.904449 2.14649,-4.769531 0,-0.848328 -0.15823,-1.655821 -0.49023,-2.386719 -0.32333,-0.728099 -0.81335,-1.369258 -1.4336,-1.890625 -0.19714,-0.165715 -0.53473,-0.23617 -0.76562,-0.375 0.42139,-0.347424 0.78861,-0.724802 1.05664,-1.16211 0.51418,-0.838934 0.7832,-1.78304 0.7832,-2.751953 0,-1.316339 -0.53811,-2.558091 -1.48828,-3.537109 -1.11085,-1.160233 -2.84789,-1.5625 -5.06641,-1.5625 z m -71.527341,0.505859 a 1.0666275,1.0666275 0 0 0 -1.066407,1.066407 v 17.109374 a 1.0666275,1.0666275 0 0 0 1.066407,1.066407 h 2.228515 a 1.0666275,1.0666275 0 0 0 1.066407,-1.066407 v -5.185546 c 1.780155,-0.01614 3.279033,-0.263948 4.478515,-0.859375 a 1.0666275,1.0666275 0 0 0 0.002,-0.002 c 1.192466,-0.596233 2.162826,-1.477298 2.837891,-2.59375 0.666879,-1.102915 1.015625,-2.335073 1.015625,-3.617188 0,-1.096674 -0.259627,-2.1392 -0.777344,-3.058594 -0.526286,-0.934612 -1.320326,-1.675942 -2.296875,-2.152344 -5.18e-4,-2.56e-4 -0.0014,2.57e-4 -0.002,0 -1.077552,-0.533336 -2.467744,-0.707031 -4.296875,-0.707031 z m 3.294922,3.853516 h 0.267578 c 1.788896,0 2.840562,0.364396 3.089843,0.587891 a 1.0666275,1.0666275 0 0 0 0.0059,0.0039 c 0.419779,0.372077 0.611328,0.788099 0.611328,1.539062 0,0.613961 -0.135585,1.148843 -0.414062,1.666016 -0.266488,0.494905 -0.611626,0.838434 -1.105469,1.105469 -0.386282,0.202983 -1.260006,0.373428 -2.455078,0.388671 z m 30.21875,0.601562 c -1.060087,0 -2.102123,0.350404 -3.06836,0.97461 -0.191855,0.123942 -0.304334,0.361791 -0.484375,0.503906 v -0.07031 A 1.0666275,1.0666275 0 0 0 86.5625,82.410156 h -2.048828 a 1.0666275,1.0666275 0 0 0 -1.066406,1.066406 v 12.3125 a 1.0666275,1.0666275 0 0 0 1.066406,1.066407 H 86.5625 a 1.0666275,1.0666275 0 0 0 1.066406,-1.066407 v -6.835937 c 0.458564,-0.829457 0.994917,-1.535779 1.654297,-2.083984 0.712725,-0.586079 1.264097,-0.783203 1.646485,-0.783203 0.121731,0 0.185135,0.01501 0.324218,0.126953 a 1.0666275,1.0666275 0 0 0 0.0098,0.0078 c 0.141443,0.111134 0.205599,0.206756 0.259766,0.394531 a 1.0666275,1.0666275 0 0 0 0.0078,0.02344 c 0.02253,0.07183 0.128906,0.870441 0.128906,2.017578 v 7.132812 a 1.0666275,1.0666275 0 0 0 1.066406,1.066407 h 2.050782 a 1.0666275,1.0666275 0 0 0 1.066406,-1.066407 v -6.878906 c 0,-1.874141 -0.07022,-3.110497 -0.4375,-4.060547 -0.31449,-0.831777 -0.900733,-1.536498 -1.660156,-2.02539 -0.761291,-0.497096 -1.648298,-0.75586 -2.564453,-0.75586 z m -20.173829,0.341797 a 1.0666275,1.0666275 0 0 0 -1.066406,1.066406 v 1.707032 A 1.0666275,1.0666275 0 0 0 71.007812,86.25 h 2.351563 v 9.539062 a 1.0666275,1.0666275 0 0 0 1.066406,1.066407 h 5.478516 a 1.0666275,1.0666275 0 0 0 1.066406,-1.066407 v -1.708984 a 1.0666275,1.0666275 0 0 0 -1.066406,-1.066406 h -2.361328 v -9.53711 a 1.0666275,1.0666275 0 0 0 -1.066407,-1.066406 z"
       transform="matrix(1,0,-0.19504252,1,-2.4823464,3.6244756)" />
    <text
       xml:space="preserve"
       style="font-style:normal;font-weight:normal;font-size:10.58333302px;line-height:1.25;font-family:sans-serif;letter-spacing:0px;word-spacing:0px;fill:#000000;fill-opacity:1;stroke:none;stroke-width:0.26458332"
       x="39.040794"
       y="95.789749"
       id="text844"><tspan
         sodipodi:role="line"
         id="tspan842"
         x="39.040794"
         y="105.15352"
         style="stroke-width:0.26458332" /></text>
  </g>
</svg>
